<svg version="1.0" xmlns="http://www.w3.org/2000/svg"
 width="512.000000pt" height="512.000000pt" viewBox="0 0 512.000000 512.000000"
 preserveAspectRatio="xMidYMid meet">
<g transform="translate(0.000000,512.000000) scale(0.100000,-0.100000)"
fill="#000000" stroke="none">
<path d="M1909 4031 c-13 -10 -41 -54 -62 -97 l-39 -79 -101 3 c-89 3 -112 0
-185 -24 -210 -68 -392 -258 -458 -479 -13 -43 -18 -92 -18 -170 1 -93 5 -122
28 -190 15 -44 37 -95 48 -114 25 -39 29 -33 -74 -91 -71 -40 -172 -130 -222
-199 -51 -69 -104 -181 -128 -269 -30 -113 -30 -314 0 -436 56 -222 198 -427
376 -541 115 -73 150 -80 384 -73 20 1 71 -2 112 -7 62 -6 90 -4 160 14 94 24
187 64 254 111 l45 31 71 -36 c83 -42 201 -71 321 -79 47 -3 105 -13 129 -21
23 -8 46 -15 50 -15 3 0 -13 59 -37 131 -24 72 -43 134 -43 138 0 3 32 12 72
18 71 11 72 11 92 -15 43 -58 154 -160 212 -196 34 -20 97 -49 140 -64 70 -23
94 -26 214 -26 119 0 145 3 216 27 144 48 289 162 373 294 l33 53 36 -49 c76
-100 145 -138 278 -154 120 -14 133 -5 81 52 -20 23 -57 82 -83 133 -25 51
-57 107 -70 125 -13 17 -24 34 -24 36 0 2 27 7 60 10 109 10 195 68 300 207
33 43 85 101 116 129 32 28 55 54 51 57 -3 4 -34 2 -69 -4 -35 -6 -106 -14
-158 -17 -154 -10 -272 -47 -370 -115 l-25 -18 -1 87 c-2 263 -211 523 -499
618 -69 23 -98 27 -210 27 -82 1 -147 -4 -176 -13 l-47 -13 -73 60 c-117 95
-252 151 -364 152 -49 0 -105 32 -105 60 0 25 -3 25 56 -2 35 -15 76 -23 144
-26 166 -8 282 35 407 152 125 117 171 191 283 463 37 88 86 189 109 223 80
118 36 137 -107 46 -54 -34 -134 -73 -207 -99 -172 -63 -270 -116 -356 -194
l-42 -38 5 194 5 195 -39 -45 c-109 -123 -211 -260 -247 -329 -57 -108 -72
-182 -69 -337 1 -71 -1 -134 -5 -141 -5 -6 -17 -12 -27 -12 -18 0 -18 2 -3 38
20 48 28 185 14 238 -17 62 -64 120 -121 149 -40 20 -57 37 -82 81 -47 85
-113 144 -219 199 -52 26 -99 52 -106 57 -19 15 10 51 73 93 59 39 63 48 37
85 -42 60 -75 72 -114 41z m1586 -203 c-45 -73 -83 -153 -126 -260 -50 -126
-112 -248 -145 -283 -13 -14 -24 -29 -24 -33 -2 -9 -28 -4 -61 12 -24 12 -34
10 -95 -17 -71 -32 -167 -46 -193 -28 -11 7 -6 18 25 54 35 41 41 44 69 36 76
-22 215 1 239 40 9 15 1 14 -32 -3 -58 -30 -192 -32 -192 -3 0 14 58 62 110
94 34 21 83 35 165 48 27 5 35 9 25 15 -15 8 -150 -4 -172 -15 -34 -17 95 93
133 114 42 24 43 24 25 3 -26 -29 -15 -37 16 -12 14 10 28 16 32 13 3 -3 6 3
6 15 0 11 5 24 12 28 7 5 8 3 3 -7 -5 -8 16 12 46 45 70 76 75 90 13 39 -27
-22 -96 -64 -152 -93 -64 -32 -128 -75 -165 -108 -34 -31 -46 -39 -28 -19 36
38 33 50 -4 20 -11 -10 -9 -6 5 8 14 14 34 36 45 49 l20 23 -32 -17 c-17 -9
-35 -21 -39 -27 -4 -7 -13 -1 -24 15 l-17 26 -67 -61 c-55 -51 -75 -78 -116
-163 -28 -55 -48 -94 -46 -86 32 110 61 171 103 219 60 68 170 141 276 181
180 69 215 85 292 131 44 27 84 49 88 49 5 0 -4 -19 -18 -42z m-1708 -22 c0 0
-15 -39 -34 -85 -19 -46 -38 -111 -42 -145 -5 -33 -9 -53 -10 -43 -1 14 -5 16
-18 8 -22 -11 -47 -9 -96 8 -33 11 -42 10 -74 -6 -47 -23 -76 -63 -75 -102 1
-40 -110 -211 -137 -211 -6 0 -27 25 -46 55 -20 30 -40 55 -45 55 -5 0 -21
-23 -36 -52 -24 -47 -26 -60 -22 -142 5 -96 31 -178 69 -212 34 -30 20 -64
-27 -64 -31 0 -87 151 -99 265 -32 302 237 638 540 674 47 5 143 4 152 -3z
m992 -193 c1 -50 -2 -63 -14 -63 -8 0 -15 -5 -15 -12 0 -8 -5 -7 -15 3 -12 11
-13 22 -7 40 5 13 12 49 15 79 6 53 6 53 -17 -25 -23 -83 -70 -185 -85 -185
-4 0 -15 17 -24 38 l-15 37 5 -61 c6 -65 -5 -86 -32 -64 -11 9 -18 10 -29 1
-26 -22 -27 18 -2 79 26 64 107 184 177 264 l44 50 6 -60 c4 -32 7 -87 8 -121z
m-827 118 c133 -62 221 -138 243 -211 6 -22 4 -21 -24 10 -29 34 -41 28 -21
-9 15 -30 28 -133 21 -176 l-6 -39 -36 44 c-20 25 -44 58 -54 73 -16 25 -20
27 -33 13 -14 -14 -19 -13 -51 6 -20 12 -38 25 -41 29 -13 18 -99 49 -138 49
l-42 0 6 43 c11 70 70 207 89 207 2 0 42 -17 87 -39z m1028 -205 c0 -2 -8 -10
-17 -17 -16 -13 -17 -12 -4 4 13 16 21 21 21 13z m-1381 -20 c10 -12 4 -16
-31 -22 -24 -5 -47 -8 -53 -9 -5 0 -18 -9 -28 -20 -17 -19 -18 -19 -2 12 8 18
23 37 32 42 26 15 69 13 82 -3z m281 -30 c20 -7 61 -31 92 -54 44 -34 57 -50
61 -77 9 -56 46 -121 120 -208 68 -80 84 -98 120 -126 15 -12 19 -9 38 34 18
41 21 62 17 154 -4 114 -18 155 -80 234 l-30 38 53 -20 c95 -36 133 -102 131
-232 -1 -70 -17 -127 -64 -226 -27 -58 -34 -65 -97 -98 -38 -20 -102 -67 -144
-106 l-75 -69 -79 56 c-43 31 -97 66 -120 77 -35 17 -43 26 -43 47 0 40 -33
63 -98 70 -31 4 -59 4 -62 1 -3 -3 -14 -13 -24 -21 -18 -14 -19 -13 -13 2 4
13 1 16 -16 13 -21 -4 -21 -4 -3 10 11 8 16 15 11 15 -5 0 34 42 86 93 72 70
102 108 126 157 29 60 67 199 58 208 -2 3 -19 -2 -37 -11 -42 -19 -93 -32
-188 -47 -41 -7 -102 -25 -134 -41 -33 -16 -61 -29 -63 -29 -2 0 10 18 28 40
34 43 117 90 158 91 15 0 51 8 81 19 65 21 141 24 190 6z m388 -133 c12 -22
23 -58 25 -80 3 -21 2 -30 0 -20 -2 9 -9 14 -15 11 -14 -9 -27 15 -29 51 -2
30 -2 30 -9 -5 -4 -19 -8 -30 -9 -23 0 7 -8 10 -18 6 -14 -6 -15 0 -10 48 4
30 7 65 7 78 l0 24 19 -24 c10 -13 28 -43 39 -66z m-479 15 c-14 -66 -63 -157
-115 -216 -25 -29 -49 -51 -52 -48 -2 3 -14 -6 -24 -20 -11 -14 -23 -23 -26
-20 -3 3 -11 -2 -19 -12 -8 -9 -12 -12 -9 -5 4 6 -4 21 -16 33 -17 16 -18 19
-5 15 10 -4 17 -2 17 4 0 6 6 11 14 11 8 0 18 5 22 11 4 7 -15 10 -64 7 -66
-3 -70 -2 -60 16 17 32 97 106 113 106 9 0 13 -5 10 -10 -13 -20 24 -21 64 -1
46 24 111 78 111 93 0 5 -14 -2 -31 -16 -36 -31 -82 -56 -112 -62 -17 -3 -15
2 13 31 42 43 31 45 -21 4 -43 -34 -44 -33 -29 7 8 21 -4 12 -50 -37 -51 -55
-59 -60 -54 -36 10 46 -6 30 -36 -35 l-29 -63 -1 40 c-1 32 -3 36 -10 20 -5
-11 -9 -14 -9 -7 -1 7 -6 10 -13 6 -8 -5 -9 -1 -5 12 5 14 2 12 -13 -6 -10
-14 -24 -36 -29 -50 -5 -14 -12 -34 -17 -45 -6 -17 -8 -18 -11 -3 -2 9 6 39
18 68 43 101 173 186 329 215 74 14 152 31 156 34 1 1 -2 -18 -7 -41z m932
-52 c-32 -66 -106 -152 -151 -176 -16 -8 -3 11 34 51 57 61 115 143 130 183 3
10 9 16 12 13 3 -3 -8 -35 -25 -71z m-565 -28 l29 -33 -32 29 c-18 17 -33 31
-33 33 0 8 8 1 36 -29z m-924 -47 c0 -14 1 -32 1 -38 -1 -7 3 -11 7 -8 5 3 12
0 16 -6 4 -7 3 -9 -4 -5 -6 3 -13 2 -17 -4 -4 -7 -12 -7 -24 0 -10 5 -21 6
-25 3 -10 -10 -7 24 6 74 10 42 12 44 25 28 7 -11 14 -30 15 -44z m38 -16 c13
-14 19 -25 13 -25 -6 0 -18 11 -27 25 -9 14 -15 25 -13 25 2 0 14 -11 27 -25z
m1266 -50 c-21 -74 -36 -96 -36 -52 0 20 44 127 53 127 2 0 -6 -34 -17 -75z
m362 8 c-10 -2 -26 -2 -35 0 -10 3 -2 5 17 5 19 0 27 -2 18 -5z m-35 -50 c-7
-2 -19 -2 -25 0 -7 3 -2 5 12 5 14 0 19 -2 13 -5z m-1380 -40 c-13 -2 -33 -2
-45 0 -13 2 -3 4 22 4 25 0 35 -2 23 -4z m966 -100 c50 -29 49 -29 -25 -36
l-51 -4 10 34 c6 18 13 33 15 33 3 0 26 -12 51 -27z m-735 -59 c31 -12 18 -49
-30 -85 -25 -19 -50 -41 -55 -50 -12 -22 -59 -13 -59 12 0 15 6 17 33 12 28
-4 35 -1 45 21 14 31 7 53 -19 61 -16 5 -18 10 -8 21 12 14 65 19 93 8z m870
-41 c36 -35 33 -54 -13 -79 l-38 -21 -41 24 c-23 14 -46 21 -53 18 -6 -4 6
-15 30 -26 23 -10 41 -20 41 -22 0 -2 -20 1 -45 7 -37 9 -45 14 -45 34 0 13 4
20 10 17 6 -3 10 0 10 9 0 22 52 61 87 63 22 1 39 -6 57 -24z m-200 -28 c-7
-19 -14 -50 -14 -70 0 -34 1 -35 41 -35 78 0 173 -68 240 -173 54 -84 57 -107
19 -162 -107 -155 -163 -394 -135 -566 5 -31 3 -39 -17 -53 -12 -9 -42 -16
-66 -16 -53 0 -145 37 -138 56 36 95 42 302 12 424 -37 150 -108 274 -215 378
l-45 42 40 41 c77 81 218 168 271 169 21 0 21 -1 7 -35z m335 20 c81 -19 169
-66 232 -123 l49 -44 -37 -20 c-52 -28 -107 -71 -174 -135 l-55 -54 -27 60
c-15 34 -27 65 -27 71 0 5 -3 9 -7 8 -5 -2 -30 21 -57 50 -58 62 -54 73 32 98
l56 17 -26 18 c-14 11 -33 30 -42 44 -15 23 -15 25 1 25 10 0 47 -7 82 -15z
m-1087 -1 c3 -3 3 -14 1 -25 -5 -16 -8 -18 -14 -7 -7 10 -9 8 -9 -6 0 -15 -3
-16 -15 -6 -23 19 -18 30 13 31 24 0 25 1 7 9 -15 6 -16 9 -4 9 9 1 18 -2 21
-5z m-98 -13 c5 -8 -4 -45 -22 -91 -3 -8 -6 -18 -6 -22 -3 -19 -20 -19 -65 1
-57 24 -143 28 -206 9 -39 -12 -39 -12 53 -18 81 -6 98 -10 134 -36 23 -16 51
-47 63 -70 l22 -41 44 23 c64 32 156 57 186 49 19 -4 29 -1 39 13 31 44 151
31 233 -25 69 -48 160 -162 205 -256 47 -99 66 -194 66 -330 0 -141 -23 -236
-87 -361 -81 -156 -238 -292 -398 -344 -55 -18 -166 -39 -138 -26 9 4 10 11 3
24 -8 15 -2 23 37 46 79 46 176 153 222 245 47 94 55 142 10 59 -90 -168 -257
-304 -405 -331 -45 -8 -57 -7 -70 5 -17 18 -28 21 -19 6 3 -6 1 -10 -4 -10 -6
0 -11 5 -11 11 0 6 -7 8 -16 5 -10 -4 -13 -2 -8 6 5 8 2 9 -9 5 -9 -3 -19 -1
-23 5 -5 7 -2 8 7 3 12 -8 12 -6 0 9 -9 10 -17 13 -21 7 -3 -6 -23 7 -46 31
-21 22 -32 37 -24 32 39 -22 51 6 18 40 -10 10 -18 23 -18 29 0 7 -14 28 -30
47 -16 19 -30 29 -30 22 0 -7 -4 -10 -10 -7 -5 3 -10 1 -10 -4 0 -6 5 -11 11
-11 6 0 9 -7 5 -15 -3 -8 -1 -15 5 -15 6 0 8 -4 4 -10 -8 -13 40 -105 83 -160
45 -57 57 -70 48 -50 -5 9 -2 9 7 -2 8 -10 17 -15 20 -11 4 3 7 1 7 -5 0 -7
-16 -12 -40 -12 -22 0 -40 4 -40 10 0 5 -12 17 -26 26 -24 16 -26 16 -42 -1
-16 -17 -16 -17 1 -12 10 4 15 3 12 -2 -3 -5 5 -12 17 -14 13 -2 5 -3 -17 0
-22 2 -73 19 -114 39 -93 43 -227 173 -290 280 -85 144 -129 331 -118 498 8
120 28 192 81 301 87 177 242 306 448 374 96 32 261 51 272 32z m291 -65 c28
-14 61 -34 75 -44 l24 -20 -44 8 c-25 5 -87 8 -138 7 l-93 -2 40 38 c47 43 68
45 136 13z m1583 -102 c237 -49 452 -243 517 -468 21 -70 24 -195 5 -206 -7
-4 -10 -15 -7 -24 5 -12 -3 -23 -26 -36 -43 -27 -53 -25 -60 10 -7 34 1 63 14
54 6 -3 4 9 -4 28 -10 25 -20 33 -40 33 -14 1 -34 8 -44 17 -10 8 -32 23 -49
31 -36 18 -242 72 -249 65 -3 -2 -1 -19 4 -36 11 -37 3 -40 -53 -17 -32 14
-36 14 -36 0 0 -21 67 -93 113 -122 22 -14 36 -27 33 -30 -3 -3 2 -12 12 -20
10 -9 11 -12 2 -7 -8 4 23 -29 69 -74 65 -63 89 -95 107 -139 13 -32 24 -67
25 -78 0 -18 1 -18 9 3 5 12 12 22 15 22 4 0 4 -4 0 -9 -3 -5 1 -16 9 -23 18
-19 32 -63 16 -53 -7 4 -10 2 -8 -6 1 -8 -5 -26 -15 -40 -13 -19 -25 -25 -47
-24 -16 1 -27 -2 -24 -7 3 -4 1 -8 -3 -8 -5 0 -29 -27 -54 -60 -36 -49 -57
-67 -116 -95 -86 -43 -182 -65 -283 -65 -96 0 -173 20 -280 72 -178 86 -334
294 -371 495 -24 125 19 325 98 458 169 287 434 418 721 359z m209 -563 c69
-18 115 -42 143 -76 11 -13 10 -14 -6 -8 -17 6 -18 5 -4 -13 8 -10 -6 -1 -30
21 -24 22 -39 33 -34 25 20 -27 23 -47 8 -47 -8 0 -12 2 -10 5 3 2 0 9 -5 16
-5 6 -16 20 -24 31 -14 19 -15 18 -8 -10 l6 -30 -48 43 c-67 59 -78 53 -19
-11 27 -30 51 -53 54 -53 13 1 70 -36 70 -45 0 -6 -6 -6 -19 1 -11 5 -28 7
-38 3 -10 -3 -15 -3 -11 2 4 4 -11 17 -33 28 -36 17 -73 64 -67 84 1 4 -3 18
-10 31 -16 28 -11 28 85 3z m833 -85 c-52 -75 -163 -190 -177 -184 -44 21 -64
29 -103 39 -49 14 -46 15 52 24 36 4 74 12 83 19 14 10 11 12 -21 9 -30 -2
-35 -1 -19 6 l20 10 -20 1 c-18 1 -17 2 5 15 14 8 39 14 56 15 17 0 37 6 43
14 9 11 6 12 -15 8 -46 -8 -18 18 52 49 35 16 64 31 64 33 0 10 -99 -24 -140
-48 -54 -31 -64 -32 -57 -6 8 31 -1 24 -22 -19 -22 -43 -70 -68 -90 -48 -8 8
-1 22 26 51 36 37 30 41 -10 8 -16 -14 -17 -14 -11 1 4 11 1 17 -7 18 -8 0 8
9 35 20 59 24 134 36 234 38 l73 1 -51 -74z m-820 -71 c13 -14 21 -25 18 -25
-2 0 -15 11 -28 25 -13 14 -21 25 -18 25 2 0 15 -11 28 -25z m174 -151 c13
-20 22 -43 19 -52 -4 -10 -2 -13 5 -8 7 4 12 2 12 -3 0 -14 -27 -14 -35 -1 -4
6 -11 7 -17 4 -7 -4 -8 -2 -4 4 4 7 2 12 -4 12 -6 0 -8 5 -5 10 3 6 1 10 -5
10 -7 0 -10 6 -7 14 3 7 0 19 -6 25 -9 9 -8 10 7 5 13 -5 17 -4 12 4 -18 29 6
8 28 -24z m297 -145 c44 -70 80 -170 68 -192 -6 -9 -15 -17 -22 -17 -8 0 -8 3
1 9 10 6 7 10 -12 13 -15 3 -26 1 -26 -5 0 -6 -11 3 -23 21 -13 17 -26 30 -29
27 -3 -3 -10 13 -17 36 -16 52 -9 59 17 17 22 -35 72 -87 72 -74 0 4 -7 21
-17 39 -9 18 -17 45 -18 60 -2 15 -11 37 -20 47 -10 11 -15 20 -11 20 4 0 1
10 -6 23 -38 69 -5 51 43 -24z m-261 30 c0 -11 -4 -18 -10 -14 -5 3 -7 12 -3
20 7 21 13 19 13 -6z m-1200 -108 c0 -3 -15 -6 -32 -6 -18 0 -48 -3 -65 -7
-27 -6 -35 -4 -43 12 -10 18 -7 20 27 21 21 1 49 4 63 9 23 6 50 -9 50 -29z
m-212 -45 c17 -28 36 -63 43 -78 6 -15 16 -25 21 -22 5 3 7 2 6 -3 -1 -4 4
-19 11 -33 8 -13 14 -37 13 -52 0 -18 3 -26 10 -22 7 4 8 2 4 -5 -6 -9 -11 -9
-21 -1 -8 7 -18 9 -24 6 -15 -9 -201 13 -252 29 -44 15 -46 18 -43 47 5 41 17
53 34 33 18 -22 39 -19 33 5 -4 15 0 20 15 20 11 0 27 6 35 14 12 13 16 9 32
-22 20 -42 32 -27 16 20 -6 17 -9 33 -7 35 2 2 26 -22 54 -54 28 -32 62 -71
77 -88 l26 -30 -23 45 c-12 25 -22 47 -23 50 0 5 -15 24 -69 86 -15 19 -24 34
-20 34 4 0 3 5 -4 12 -7 7 -12 20 -12 30 0 30 33 2 68 -56z"/>
<path d="M1482 3291 c-8 -5 -12 -16 -10 -25 2 -12 6 -10 15 9 6 14 10 25 10
25 -1 0 -8 -4 -15 -9z"/>
<path d="M1571 3189 c-67 -13 -64 -22 6 -16 67 5 124 27 68 26 -16 -1 -50 -5
-74 -10z"/>
<path d="M1275 2383 c-47 -62 -119 -210 -142 -293 -28 -102 -25 -340 5 -443
23 -80 73 -190 92 -202 6 -3 7 -11 4 -17 -4 -6 -3 -8 3 -5 12 8 44 -28 35 -40
-4 -4 -3 -5 2 -1 5 4 15 3 23 -4 32 -26 22 5 -16 49 -99 118 -156 361 -131
566 18 157 61 278 133 385 44 65 40 68 -8 5z"/>
<path d="M1005 1500 c21 -22 41 -40 44 -40 3 0 -13 18 -34 40 -21 22 -41 40
-44 40 -3 0 13 -18 34 -40z"/>
<path d="M1810 1470 c-41 -38 -70 -70 -65 -70 6 0 42 32 80 70 38 39 67 70 65
70 -3 -1 -39 -32 -80 -70z"/>
<path d="M1322 1456 c7 -8 15 -12 17 -11 5 6 -10 25 -20 25 -5 0 -4 -6 3 -14z"/>
<path d="M1634 1434 c-18 -14 -18 -15 4 -4 12 6 22 13 22 15 0 8 -5 6 -26 -11z"/>
<path d="M1080 1436 c0 -3 9 -10 20 -16 11 -6 20 -8 20 -6 0 3 -9 10 -20 16
-11 6 -20 8 -20 6z"/>
<path d="M1185 1389 c-4 -6 -5 -12 -2 -15 2 -3 7 2 10 11 7 17 1 20 -8 4z"/>
<path d="M3485 2507 c90 -62 160 -155 186 -247 12 -43 41 -79 65 -80 15 0 9
52 -11 90 -19 37 -19 44 3 36 16 -6 16 -5 0 7 -10 8 -15 17 -12 20 10 10 -104
124 -162 162 -29 19 -68 38 -86 41 -32 6 -32 5 17 -29z"/>
<path d="M2958 2458 c-29 -23 -77 -67 -107 -98 -81 -83 -153 -202 -83 -138 15
14 42 34 60 44 18 11 45 41 61 70 16 27 52 76 81 107 29 31 50 57 47 57 -3 0
-29 -19 -59 -42z"/>
<path d="M3635 2461 c26 -21 68 -67 93 -101 50 -68 69 -66 29 3 -28 47 -53 71
-112 111 -59 39 -64 32 -10 -13z"/>
<path d="M2840 2260 c-54 -28 -128 -113 -163 -188 -26 -56 -32 -82 -35 -157
-5 -111 18 -188 85 -287 38 -58 50 -68 74 -68 16 0 29 3 29 6 0 4 -18 27 -41
51 -23 25 -55 75 -72 111 -28 61 -31 77 -32 167 0 94 2 105 33 168 39 79 110
155 169 183 23 10 43 22 43 27 0 14 -55 6 -90 -13z"/>
<path d="M3545 1705 c-83 -70 -222 -136 -349 -166 l-81 -19 74 5 c134 10 272
76 370 179 43 45 38 45 -14 1z"/>
<path d="M3460 1497 c-36 -17 -101 -41 -144 -52 -92 -25 -91 -39 2 -19 71 15
155 51 192 82 32 28 28 27 -50 -11z"/>
</g>
</svg>